<?xml version="1.0" encoding="UTF-8"?>
<svg version="1.1" xmlns="http://www.w3.org/2000/svg" width="512" height="512">
<path d="M0 0 C5.0409254 2.63100931 8.98805519 6.92510307 10.78125 12.3046875 C11.00388605 14.33941189 11.13896829 16.38437456 11.21875 18.4296875 C11.27933594 19.50476563 11.33992188 20.57984375 11.40234375 21.6875 C9.58377059 32.27868709 -0.73517233 40.21092686 -8.0546875 47.43359375 C-9.30230357 48.67560417 -10.54925124 49.91828633 -11.79556274 51.16160583 C-15.05382705 54.40849775 -18.32100266 57.64627264 -21.59020996 60.88214111 C-24.9341302 64.19519534 -28.26941555 67.51691819 -31.60546875 70.83789062 C-38.13487477 77.33526696 -44.67374157 83.82303084 -51.21875 90.3046875 C-41.77975723 89.63248147 -32.50207989 88.60297558 -23.15625 87.1171875 C-22.1207048 86.95387436 -22.1207048 86.95387436 -21.0642395 86.78726196 C-6.66031114 84.50094701 7.58371507 81.6490827 21.78125 78.3046875 C22.98507324 78.02286621 24.18889648 77.74104492 25.42919922 77.45068359 C60.71303572 69.07048321 96.55908499 57.72059525 129.10595703 41.58886719 C134.00382355 39.26499895 137.47340078 38.66047758 142.78125 39.3046875 C145.72463887 41.47209203 146.67091018 42.66622593 147.29882812 46.29956055 C147.3055957 48.04039917 147.3055957 48.04039917 147.3125 49.81640625 C147.32071777 51.11932617 147.32893555 52.42224609 147.33740234 53.76464844 C147.3210545 55.17385761 147.30228145 56.58304045 147.28125 57.9921875 C147.27571106 58.70620728 147.27017212 59.42022705 147.26446533 60.15588379 C146.85689758 105.04853145 130.24276545 149.35081332 100.78125 183.3046875 C100.07484375 184.12195313 99.3684375 184.93921875 98.640625 185.78125 C89.19150934 196.48798178 79.48317724 206.08844071 67.78125 214.3046875 C78.00730598 221.41591034 88.55940395 222.95898813 100.8515625 220.75390625 C112.44912446 217.49112549 121.97293683 209.0428954 131.01171875 201.38671875 C131.88763672 200.85111328 131.88763672 200.85111328 132.78125 200.3046875 C136.71802426 201.61694559 137.6084282 203.5008269 139.96875 206.8671875 C140.68417969 207.87910156 141.39960938 208.89101563 142.13671875 209.93359375 C142.67941406 210.71605469 143.22210938 211.49851562 143.78125 212.3046875 C142.33350936 215.80739422 140.57109322 217.53322866 137.5625 219.80078125 C136.71171875 220.44208984 135.8609375 221.08339844 134.984375 221.74414062 C133.64632812 222.73317383 133.64632812 222.73317383 132.28125 223.7421875 C130.98960937 224.72541992 130.98960937 224.72541992 129.671875 225.72851562 C114.03530012 237.39742667 99.11014313 241.09519086 79.78125 239.3046875 C68.76831561 237.5564139 60.47328735 231.83558988 51.78125 225.3046875 C41.78423745 218.20890587 32.03625412 216.15578086 19.78125 217.3046875 C11.07983418 218.80024334 4.6746212 223.19551614 -2.35131836 228.22363281 C-7.70195155 232.03807292 -12.99938876 235.09067541 -19.21875 237.3046875 C-19.89164062 237.54703125 -20.56453125 237.789375 -21.2578125 238.0390625 C-37.18995186 242.59110232 -53.57910526 238.76653963 -67.8046875 231.2734375 C-71.03251206 229.41208329 -73.89827429 227.3920794 -76.84375 225.1171875 C-86.38865453 217.94109139 -96.43154468 216.05615664 -108.21875 217.3046875 C-116.92229079 218.8158767 -123.31980402 223.19152655 -130.35131836 228.22363281 C-135.70195155 232.03807292 -140.99938876 235.09067541 -147.21875 237.3046875 C-148.22808594 237.66820312 -148.22808594 237.66820312 -149.2578125 238.0390625 C-165.18995186 242.59110232 -181.57910526 238.76653963 -195.8046875 231.2734375 C-199.03251206 229.41208329 -201.89827429 227.3920794 -204.84375 225.1171875 C-214.38865453 217.94109139 -224.43154468 216.05615664 -236.21875 217.3046875 C-244.92229079 218.8158767 -251.31980402 223.19152655 -258.35131836 228.22363281 C-263.70195155 232.03807292 -268.99938876 235.09067541 -275.21875 237.3046875 C-275.89164062 237.54703125 -276.56453125 237.789375 -277.2578125 238.0390625 C-288.33352933 241.20355302 -302.61056607 240.57893387 -313.21875 236.3046875 C-314.25644531 235.88703125 -315.29414063 235.469375 -316.36328125 235.0390625 C-323.97065894 231.59618071 -330.47391909 227.16835665 -337.09375 222.1171875 C-337.89756104 221.51092529 -338.70137207 220.90466309 -339.52954102 220.2800293 C-340.27002686 219.69648682 -341.0105127 219.11294434 -341.7734375 218.51171875 C-342.43843262 217.9906958 -343.10342773 217.46967285 -343.78857422 216.93286133 C-345.21875 215.3046875 -345.21875 215.3046875 -345.21875 211.3046875 C-343.46875 208.5078125 -343.46875 208.5078125 -341.21875 205.5546875 C-340.47625 204.56984375 -339.73375 203.585 -338.96875 202.5703125 C-338.1025 201.44882812 -338.1025 201.44882812 -337.21875 200.3046875 C-334.18573095 201.70998348 -331.66435575 203.37792989 -329.0234375 205.421875 C-328.22421875 206.02902344 -327.425 206.63617188 -326.6015625 207.26171875 C-324.94823295 208.52618107 -323.29965914 209.79688953 -321.65625 211.07421875 C-310.58574413 219.43899395 -300.03018157 222.35493178 -286.21875 221.3046875 C-279.53716896 219.8121584 -273.6322708 217.51520368 -268.21875 213.3046875 C-269.50117658 209.45740777 -271.8137288 208.14717268 -274.96875 205.8671875 C-313.8711387 176.79027027 -340.21105599 131.87657146 -349.21875 84.3046875 C-349.78513694 80.02728614 -349.92827623 76.689953 -347.90625 72.7421875 C-340.86579321 68.97636178 -330.97355036 71.61964152 -323.46484375 73.0625 C-321.39404473 73.44182275 -319.32324387 73.82113548 -317.25244141 74.20043945 C-316.17746399 74.40110016 -315.10248657 74.60176086 -313.99493408 74.8085022 C-308.27882312 75.87202424 -302.55579694 76.89656184 -296.83203125 77.91796875 C-295.67753479 78.1240123 -294.52303833 78.33005585 -293.33355713 78.54234314 C-256.58682227 85.04670773 -219.4968413 89.35674063 -182.28125 91.9921875 C-181.05406754 92.08359512 -181.05406754 92.08359512 -179.80209351 92.17684937 C-176.36056242 92.42887597 -172.93431567 92.6766558 -169.48352051 92.75146484 C-163.46460136 92.90501982 -157.79673207 93.53419361 -151.90156746 94.69239807 C-136.78745294 97.52969004 -120.56635414 99.54258233 -107.13046265 90.64956665 C-93.16942098 80.21353572 -81.38809419 66.9845549 -69.77152377 54.07310981 C-64.267007 47.96435775 -58.60286918 42.01002775 -52.93554688 36.05273438 C-47.14716933 29.96182263 -41.3742556 23.86132698 -35.70631409 17.65791321 C-34.41904671 16.25534019 -34.41904671 16.25534019 -33.10577393 14.82443237 C-31.51407735 13.0860954 -29.92947309 11.34122458 -28.35368347 9.5884552 C-20.39370367 0.91203763 -12.10484065 -3.79341837 0 0 Z M-14.53196114 20.23065472 C-15.10686486 20.81429696 -15.68176858 21.39793921 -16.27409363 21.99926758 C-16.88918976 22.61180043 -17.50428589 23.22433329 -18.13802129 23.85542774 C-20.20883984 25.92128283 -22.26871582 27.99772002 -24.32885742 30.07421875 C-25.80646949 31.55267654 -27.28474149 33.03047503 -28.7636261 34.50765991 C-32.78659541 38.52976569 -36.80022443 42.56107858 -40.81229568 46.59405136 C-45.00300852 50.80347128 -49.20217358 55.00444178 -53.40046692 59.20629883 C-61.35373058 67.16890053 -69.29931369 75.13912124 -77.24219638 83.11207676 C-86.28335099 92.18672068 -95.33298823 101.25288486 -104.38336408 110.31833076 C-123.00464384 128.97099939 -141.61519336 147.63434356 -160.21875 166.3046875 C-159.55875 167.6246875 -158.89875 168.9446875 -158.21875 170.3046875 C-154.03526269 168.66193895 -151.22186559 165.59525189 -148.11235046 162.47244263 C-147.50386145 161.86919029 -146.89537243 161.26593796 -146.26844436 160.64440525 C-144.22844781 158.6194245 -142.19567716 156.58734355 -140.1628418 154.55517578 C-138.70291239 153.10286649 -137.24258043 151.65096177 -135.78187561 150.19943237 C-131.81448548 146.25400171 -127.85370151 142.30200353 -123.89473701 138.34812021 C-121.42329096 135.88031437 -118.95055103 133.41381258 -116.47736549 130.94775009 C-107.85605548 122.35093435 -99.24048107 113.74841316 -90.62963867 105.14111328 C-82.59115333 97.10626876 -74.53961613 89.0846664 -66.48206586 81.06894505 C-59.57215532 74.19365714 -52.67182788 67.30884949 -45.77885753 60.41657817 C-41.65838573 56.29690157 -37.53398295 52.18134996 -33.39975548 48.07547379 C-29.51544397 44.21720695 -25.64312462 40.3473048 -21.77988243 36.4679451 C-20.35672415 35.04296179 -18.92924581 33.62227863 -17.49727249 32.20615387 C-15.54988116 30.27901605 -13.61836525 28.3372761 -11.69023132 26.39089966 C-11.11418661 25.82805492 -10.5381419 25.26521017 -9.94464129 24.68530953 C-8.20928042 22.97162472 -8.20928042 22.97162472 -6.21875 20.3046875 C-6.2135393 17.97351783 -6.2135393 17.97351783 -7.21875 16.3046875 C-10.9965701 16.3046875 -11.94078032 17.66876058 -14.53196114 20.23065472 Z M122.2890625 63.5078125 C121.12753662 63.98766602 119.96601074 64.46751953 118.76928711 64.96191406 C118.14230927 65.22105591 117.51533142 65.48019775 116.86935425 65.74719238 C73.93889567 83.40602824 28.92556525 96.14730057 -16.90625 103.4921875 C-17.69717041 103.62056 -18.48809082 103.7489325 -19.30297852 103.88119507 C-28.22668668 105.31438911 -37.08864904 106.44822092 -46.109375 107.0390625 C-65.87469052 107.71680423 -65.87469052 107.71680423 -81.96875 118.0546875 C-83.91497726 120.40887655 -85.56430713 122.72683465 -87.21875 125.3046875 C-83.3867962 126.61942408 -79.71496239 126.21684733 -75.75390625 125.88671875 C-74.64931816 125.80139137 -74.64931816 125.80139137 -73.52241516 125.71434021 C-71.10789289 125.52403762 -68.69458107 125.32201968 -66.28125 125.1171875 C-65.45030823 125.04777954 -64.61936646 124.97837158 -63.76324463 124.90686035 C-13.2892621 120.65155039 91.47647906 111.60945844 129.78125 73.3046875 C129.85369053 71.28504551 129.86502188 69.26301626 129.84375 67.2421875 C129.83472656 66.13746094 129.82570313 65.03273438 129.81640625 63.89453125 C129.80480469 63.03988281 129.79320312 62.18523437 129.78125 61.3046875 C126.94320533 61.3046875 124.90828276 62.41000531 122.2890625 63.5078125 Z M-329.21875 90.3046875 C-328.97160398 92.67728927 -328.63737296 94.96039894 -328.21875 97.3046875 C-328.12722656 98.01109375 -328.03570312 98.7175 -327.94140625 99.4453125 C-327.39036045 101.90452515 -326.76626983 103.30495479 -325.21875 105.3046875 C-322.88816851 106.29296821 -322.88816851 106.29296821 -320.0078125 106.796875 C-318.83412109 107.03792969 -317.66042969 107.27898437 -316.45117188 107.52734375 C-307.4375114 109.21027059 -298.39508676 110.71518927 -289.34375 112.1796875 C-288.26794678 112.35454681 -287.19214355 112.52940613 -286.08374023 112.70956421 C-248.72011207 118.76234775 -211.30660326 123.12873625 -173.53125 125.4921875 C-172.85668762 125.53515961 -172.18212524 125.57813171 -171.48712158 125.62240601 C-168.29380573 125.82259589 -165.10176898 125.99671838 -161.90527344 126.13842773 C-159.41156878 126.25089216 -156.91945895 126.40525779 -154.43066406 126.59790039 C-146.49064128 127.04745082 -146.49064128 127.04745082 -139.7890625 123.27734375 C-138.60246681 122.00859913 -137.45316665 120.70394362 -136.34375 119.3671875 C-135.73917969 118.70783203 -135.13460937 118.04847656 -134.51171875 117.36914062 C-131.63958046 114.6822698 -131.63958046 114.6822698 -130.21875 111.3046875 C-131.43828369 111.25981201 -132.65781738 111.21493652 -133.91430664 111.16870117 C-195.50138777 108.86896407 -256.27312055 103.10369966 -316.89794922 91.77734375 C-318.47020264 91.48537109 -318.47020264 91.48537109 -320.07421875 91.1875 C-321.43003052 90.93057373 -321.43003052 90.93057373 -322.81323242 90.66845703 C-325.47244429 90.20500552 -325.47244429 90.20500552 -329.21875 90.3046875 Z M118.625 96.76171875 C56.66317707 121.7728614 -7.51264709 137.62055872 -74.33984375 141.9453125 C-75.35860596 142.0285376 -76.37736816 142.1117627 -77.42700195 142.19750977 C-80.56116548 142.28610018 -83.40827405 142.12349416 -86.51635742 141.83178711 C-97.81022784 141.08725898 -105.38862211 142.31603857 -114.22273254 149.74313354 C-118.74068917 153.94047161 -123.00350345 158.32635977 -127.20513916 162.83746338 C-129.14681066 164.88432407 -131.15671267 166.85663957 -133.16930103 168.83340454 C-145.13013958 179.83905973 -145.13013958 179.83905973 -150.82728577 194.38023376 C-150.853938 196.74237581 -150.853938 196.74237581 -150.43603516 200.18383789 C-150.18144255 203.84053154 -150.79484555 204.96105405 -153.15625 207.6796875 C-154.48441653 208.91654258 -155.84199598 210.12215413 -157.21875 211.3046875 C-159.0404939 213.10789621 -160.8527385 214.92074336 -162.65625 216.7421875 C-163.52121094 217.58652344 -164.38617188 218.43085938 -165.27734375 219.30078125 C-167.33471963 220.95937268 -167.33471963 220.95937268 -167.21875 222.3046875 C-154.69405249 223.13966733 -145.98835913 218.47554698 -136.08740234 211.38574219 C-130.73538853 207.57260912 -125.43862291 204.51888174 -119.21875 202.3046875 C-118.54585937 202.06234375 -117.87296875 201.82 -117.1796875 201.5703125 C-101.24754814 197.01827268 -84.85839474 200.84283537 -70.6328125 208.3359375 C-67.40498794 210.19729171 -64.53922571 212.2172956 -61.59375 214.4921875 C-52.04884547 221.66828361 -42.00595532 223.55321836 -30.21875 222.3046875 C-21.51651359 220.79372478 -15.17384678 216.4267385 -8.15649414 211.38574219 C-2.49520005 207.35757899 3.14899868 204.45992427 9.78125 202.3046875 C10.49925781 202.06234375 11.21726562 201.82 11.95703125 201.5703125 C24.37065165 198.1103957 37.30472395 200.24917209 49.2890625 204.11328125 C52.83922551 204.38594267 54.1818354 203.07853451 56.96875 200.9296875 C57.9278125 200.19105469 58.886875 199.45242188 59.875 198.69140625 C63.49644533 195.71734294 66.99604277 192.64101823 70.4375 189.4609375 C72.57225074 187.49696682 74.75477154 185.61555389 76.96875 183.7421875 C80.97596182 180.23087814 84.41685629 176.4305695 87.78125 172.3046875 C88.53148437 171.39203125 89.28171875 170.479375 90.0546875 169.5390625 C106.6754225 148.67138891 122.86324673 121.29621773 125.78125 94.3046875 C123.43890863 94.3046875 120.71765745 95.91081835 118.625 96.76171875 Z M-317.21875 124.3046875 C-308.39406513 153.24965388 -282.28648195 180.22118839 -258.21875 197.3046875 C-257.45820313 197.88347656 -256.69765625 198.46226562 -255.9140625 199.05859375 C-252.35278472 201.6013738 -250.78589 202.31368972 -246.28125 202.2421875 C-244.92340326 201.94608644 -243.56911991 201.63320647 -242.21875 201.3046875 C-241.54396103 201.22839615 -240.86917206 201.1521048 -240.17393494 201.07350159 C-232.81328217 200.04850353 -229.07707276 196.06260713 -224.09765625 190.83203125 C-223.27168442 189.99378311 -222.44571259 189.15553497 -221.5947113 188.29188538 C-218.97316678 185.62473797 -216.37686569 182.93455215 -213.78125 180.2421875 C-211.15553783 177.55166664 -208.52494215 174.86601416 -205.89280701 172.18177795 C-204.25970308 170.51276046 -202.63135042 168.83907836 -201.00819397 167.16038513 C-200.27660568 166.40612747 -199.5450174 165.65186981 -198.79125977 164.87475586 C-198.14778091 164.20794296 -197.50430206 163.54113007 -196.84132385 162.85411072 C-195.21875 161.3046875 -195.21875 161.3046875 -193.21875 160.3046875 C-192.18492187 160.38589844 -191.15109375 160.46710938 -190.0859375 160.55078125 C-182.88381324 160.89608858 -178.21675998 160.58429145 -172.6015625 155.71484375 C-168.57118879 151.81840328 -164.65768418 147.73881164 -161.21875 143.3046875 C-161.21875 142.9746875 -161.21875 142.6446875 -161.21875 142.3046875 C-162.09029472 142.24617363 -162.09029472 142.24617363 -162.97944641 142.18647766 C-211.94861121 138.88223679 -260.52030787 134.11708596 -308.8208313 125.22506714 C-311.67008071 124.7085638 -314.31553429 124.3046875 -317.21875 124.3046875 Z M-191.6875 180.9921875 C-192.53616638 181.85783325 -192.53616638 181.85783325 -193.40197754 182.7409668 C-195.19398391 184.57754056 -196.95608536 186.43997892 -198.71875 188.3046875 C-199.93302041 189.55910978 -201.14914903 190.81173616 -202.3671875 192.0625 C-205.33962493 195.12285488 -208.28556176 198.20671341 -211.21875 201.3046875 C-208.68821209 203.83522541 -205.78342186 205.04289431 -202.59375 206.5546875 C-196.9730737 209.27848714 -192.04831212 212.31558819 -187.21875 216.3046875 C-182.10393627 211.9813729 -177.11810491 207.56243567 -172.28125 202.9296875 C-171.25547852 201.99769531 -171.25547852 201.99769531 -170.20898438 201.046875 C-167.08455584 198.02544961 -164.77051015 195.70306302 -164.43359375 191.234375 C-164.89462649 186.53949637 -167.39738228 183.93443785 -170.71875 180.8046875 C-171.2240625 180.2684375 -171.729375 179.7321875 -172.25 179.1796875 C-172.765625 178.674375 -173.28125 178.1690625 -173.8125 177.6484375 C-174.27333984 177.19662109 -174.73417969 176.74480469 -175.20898438 176.27929688 C-182.3820241 172.80082571 -186.8851899 175.81392323 -191.6875 180.9921875 Z " fill="#000000" transform="translate(357.21875,88.6953125)"/>
<path d="M0 0 C1.89832409 1.36394331 3.77500786 2.75868763 5.625 4.1875 C15.16990453 11.36359611 25.21279468 13.24853086 37 12 C45.70033305 10.48936776 52.04623306 6.1248913 59.06005859 1.08105469 C73.27893833 -9.04456291 89.02812949 -11.92353662 106.12109375 -9.5703125 C116.10491773 -7.16707404 125.54613499 -2.0520845 133.625 4.1875 C143.16990453 11.36359611 153.21279468 13.24853086 165 12 C173.70033305 10.48936776 180.04623306 6.1248913 187.06005859 1.08105469 C201.27893833 -9.04456291 217.02812949 -11.92353662 234.12109375 -9.5703125 C244.10491773 -7.16707404 253.54613499 -2.0520845 261.625 4.1875 C271.16426462 11.35935589 281.21783793 13.25854913 293 12 C306.06669488 9.63332822 316.36411132 0.43919442 326.23046875 -7.91796875 C326.81441406 -8.27503906 327.39835937 -8.63210938 328 -9 C331.93677426 -7.68774191 332.8271782 -5.8038606 335.1875 -2.4375 C335.90292969 -1.42558594 336.61835938 -0.41367187 337.35546875 0.62890625 C337.89816406 1.41136719 338.44085938 2.19382812 339 3 C337.55225936 6.50270672 335.78984322 8.22854116 332.78125 10.49609375 C331.50507812 11.45805664 331.50507812 11.45805664 330.203125 12.43945312 C328.86507812 13.42848633 328.86507812 13.42848633 327.5 14.4375 C326.20835937 15.42073242 326.20835937 15.42073242 324.890625 16.42382812 C309.25405012 28.09273917 294.32889313 31.79050336 275 30 C263.98706561 28.2517264 255.69203735 22.53090238 247 16 C237.00298745 8.90421837 227.25500412 6.85109336 215 8 C206.29858418 9.49555584 199.8933712 13.89082864 192.86743164 18.91894531 C187.51679845 22.73338542 182.21936124 25.78598791 176 28 C175.32710938 28.24234375 174.65421875 28.4846875 173.9609375 28.734375 C158.02879814 33.28641482 141.63964474 29.46185213 127.4140625 21.96875 C124.18623794 20.10739579 121.32047571 18.0873919 118.375 15.8125 C108.83009547 8.63640389 98.78720532 6.75146914 87 8 C78.29645921 9.5111892 71.89894598 13.88683905 64.86743164 18.91894531 C59.51679845 22.73338542 54.21936124 25.78598791 48 28 C46.99066406 28.36351562 46.99066406 28.36351562 45.9609375 28.734375 C30.02879814 33.28641482 13.63964474 29.46185213 -0.5859375 21.96875 C-3.81376206 20.10739579 -6.67952429 18.0873919 -9.625 15.8125 C-19.16990453 8.63640389 -29.21279468 6.75146914 -41 8 C-49.70354079 9.5111892 -56.10105402 13.88683905 -63.13256836 18.91894531 C-68.48320155 22.73338542 -73.78063876 25.78598791 -80 28 C-80.67289062 28.24234375 -81.34578125 28.4846875 -82.0390625 28.734375 C-93.11477933 31.89886552 -107.39181607 31.27424637 -118 27 C-119.03769531 26.58234375 -120.07539062 26.1646875 -121.14453125 25.734375 C-128.75190894 22.29149321 -135.25516909 17.86366915 -141.875 12.8125 C-142.67881104 12.20623779 -143.48262207 11.59997559 -144.31079102 10.9753418 C-145.05127686 10.39179932 -145.7917627 9.80825684 -146.5546875 9.20703125 C-147.21968262 8.6860083 -147.88467773 8.16498535 -148.56982422 7.62817383 C-150 6 -150 6 -150 2 C-148.25 -0.796875 -148.25 -0.796875 -146 -3.75 C-145.2575 -4.73484375 -144.515 -5.7196875 -143.75 -6.734375 C-143.1725 -7.48203125 -142.595 -8.2296875 -142 -9 C-138.96698095 -7.59470402 -136.44560575 -5.92675761 -133.8046875 -3.8828125 C-133.00546875 -3.27566406 -132.20625 -2.66851562 -131.3828125 -2.04296875 C-129.72948295 -0.77850643 -128.08090914 0.49220203 -126.4375 1.76953125 C-115.31508036 10.17353203 -104.85371807 12.96246883 -91 12 C-82.3068727 10.53991402 -75.9357371 6.11192554 -68.93994141 1.08105469 C-47.1009072 -14.47106427 -22.51665117 -12.98443042 0 0 Z " fill="#000000" transform="translate(162,394)"/>
<path d="M0 0 C15.77326299 -1.08036048 26.83707778 4.86119232 39 14 C48.99701255 21.09578163 58.74499588 23.14890664 71 22 C79.70141582 20.50444416 86.1066288 16.10917136 93.13256836 11.08105469 C98.48320155 7.26661458 103.78063876 4.21401209 110 2 C110.67289062 1.75765625 111.34578125 1.5153125 112.0390625 1.265625 C127.97120186 -3.28641482 144.36035526 0.53814787 158.5859375 8.03125 C161.81376206 9.89260421 164.67952429 11.9126081 167.625 14.1875 C177.16990453 21.36359611 187.21279468 23.24853086 199 22 C207.69973519 20.48947157 214.10370295 16.11881491 221.12817383 11.08105469 C226.47680729 7.26161401 231.82054033 4.30030648 238 2 C239.155 1.566875 240.31 1.13375 241.5 0.6875 C246.39679024 -0.27436951 251.01238093 -0.12315109 256 0 C256 5.61 256 11.22 256 17 C254.2675 17.20625 252.535 17.4125 250.75 17.625 C240.0936582 19.42818827 232.02887711 24.78464166 223.51953125 31.17578125 C210.5103299 40.59484641 194.29244875 42.11014035 178.73925781 39.64111328 C168.68153177 37.42822134 161.06368171 32.05877724 153 26 C143.00298745 18.90421837 133.25500412 16.85109336 121 18 C112.29858418 19.49555584 105.8933712 23.89082864 98.86743164 28.91894531 C93.51679845 32.73338542 88.21936124 35.78598791 82 38 C81.32710938 38.24234375 80.65421875 38.4846875 79.9609375 38.734375 C64.03284342 43.28525902 47.63819128 39.46622427 33.41796875 31.96875 C30.17858693 30.10286607 27.27915897 28.08087262 24.3125 25.8125 C16.60052874 19.96047475 9.56476282 18.19559535 0 17 C0 11.39 0 5.78 0 0 Z " fill="#000000" transform="translate(128,336)"/>
</svg>
