<?xml version="1.0" encoding="UTF-8"?>
<svg version="1.1" xmlns="http://www.w3.org/2000/svg" width="512" height="512">
<path d="M0 0 C9.1735114 1.95333506 18.36310902 3.05208601 27.6875 3.9375 C28.99976563 4.06487549 30.31203125 4.19225098 31.6640625 4.32348633 C43.79157219 5.43057156 55.19276162 5.11390633 67.3125 3.9375 C68.3327124 3.84062393 68.3327124 3.84062393 69.37353516 3.74179077 C78.78708965 2.8379671 88.07185799 1.64093409 97.28833008 -0.54199219 C112.40817585 -3.91914725 127.67153069 -0.94166784 142.72631836 1.38574219 C146.31972102 1.938611 149.91621674 2.46641124 153.51367188 2.9921875 C155.82835157 3.34225515 158.1428133 3.69376772 160.45703125 4.046875 C161.51767288 4.20122009 162.57831451 4.35556519 163.6710968 4.5145874 C176.23142851 6.49886018 186.74132489 10.90778846 194.8125 21.0625 C199.62341027 27.93141078 202.61533024 35.15277484 202.63803101 43.56103516 C202.64348434 44.65144608 202.64893768 45.74185699 202.65455627 46.86531067 C202.6555986 48.05702377 202.65664093 49.24873688 202.65771484 50.4765625 C202.66551445 52.40934298 202.6733181 54.34212345 202.68127275 56.2749033 C202.68898101 58.35136849 202.69436711 60.42782929 202.69923019 62.50430298 C202.70994023 66.84299734 202.73019591 71.18161453 202.75234985 75.52026367 C202.81416393 87.85771113 202.86817036 100.19515474 202.90136719 112.53271484 C202.91978486 119.34781857 202.94881343 126.16279343 202.9893719 132.97780228 C203.0103303 136.57867883 203.02588309 140.17939374 203.02817917 143.78033447 C203.03075036 147.80816222 203.05633322 151.83554414 203.08349609 155.86328125 C203.08048996 157.03880051 203.07748383 158.21431976 203.0743866 159.42546082 C203.22743968 174.7814165 207.40513422 187.72064945 218.0703125 198.9453125 C222.93499904 203.43458915 228.46841551 206.23499289 234.41015625 209.046875 C247.51724525 215.27844001 254.78814918 221.35256721 260.5 235.1875 C261.32352999 237.98369582 261.62697588 240.47081691 261.63422108 243.38151646 C261.63867892 244.21522851 261.64313676 245.04894055 261.64772969 245.90791661 C261.64745315 247.27408955 261.64745315 247.27408955 261.64717102 248.66786194 C261.65084771 249.63948743 261.6545244 250.61111292 261.6583125 251.6121816 C261.66934977 254.87695777 261.67319329 258.14170211 261.67700195 261.40649414 C261.68326662 263.74388734 261.68991343 266.08127954 261.69691467 268.41867065 C261.71795889 276.10332546 261.72831812 283.78798047 261.73828125 291.47265625 C261.74232882 294.11849923 261.74644574 296.7643421 261.75063133 299.41018486 C261.7676427 310.41721419 261.78213528 321.42424254 261.78938007 332.431283 C261.79128985 335.28646407 261.7932102 338.14164513 261.79516602 340.99682617 C261.79564976 341.70643568 261.7961335 342.41604519 261.7966319 343.14715802 C261.80492626 354.63377323 261.83025352 366.1202841 261.86274669 377.60685379 C261.89586213 389.41001515 261.91383293 401.21312357 261.91702431 413.01633161 C261.91918542 419.63924803 261.92832138 426.26202974 261.95348549 432.88490486 C261.97678884 439.11886489 261.98099009 445.35255172 261.97072411 451.58654404 C261.97022917 453.87015505 261.9765369 456.15377961 261.99028015 458.43734932 C262.13464531 483.85452803 262.13464531 483.85452803 253.5 495.1875 C252.943125 496.0125 252.38625 496.8375 251.8125 497.6875 C245.46530512 504.54933231 236.35624122 509.55526295 227.031847 510.56192017 C222.90562608 510.70649628 218.79610154 510.72903753 214.66821289 510.70507812 C213.08854022 510.71050773 211.50887262 510.71763507 209.92921448 510.72631836 C205.66461344 510.74445667 201.40040219 510.73752336 197.13579488 510.72480202 C192.65663614 510.71462307 188.17750915 510.72408138 183.698349 510.73034668 C176.17750097 510.73760965 168.65681041 510.72807172 161.13598633 510.70898438 C152.46307559 510.68722613 143.7905412 510.69426478 135.1176396 510.71629 C127.64893011 510.73449207 120.18033335 510.73697867 112.71160883 510.72653532 C108.26071573 510.72032571 103.80999901 510.71939437 99.35911751 510.73268127 C95.17199568 510.74430915 90.98535486 510.73608875 86.79828453 510.71310425 C85.26936259 510.7078536 83.74039957 510.70926782 82.21149445 510.71815491 C70.2801251 510.78106865 60.48930704 509.41791046 51.25390625 501.359375 C49.29724307 499.81713026 49.29724307 499.81713026 45.5 500.1875 C43.67835564 501.35048442 43.67835564 501.35048442 41.9375 502.9375 C32.44417187 510.35321304 22.16749201 510.77604708 10.57055664 510.72094727 C8.99235737 510.72801886 7.41416487 510.73676905 5.83598328 510.74705505 C1.57965369 510.76941981 -2.67630178 510.76663984 -6.93266749 510.75773358 C-10.49855964 510.75259736 -14.0643831 510.7599375 -17.63026816 510.76720566 C-26.04841455 510.78416362 -34.46637949 510.7806803 -42.88452148 510.76391602 C-51.54215414 510.74699673 -60.1992825 510.76283579 -68.8568601 510.7951389 C-76.31626878 510.82190736 -83.77552117 510.82909133 -91.23497301 510.82062382 C-95.67866851 510.81571595 -100.12206078 510.81779344 -104.5657177 510.83841133 C-108.74636496 510.85688322 -112.92629168 510.85067099 -117.10690117 510.82621193 C-118.63218331 510.82124034 -120.15752148 510.82459775 -121.68275833 510.83736038 C-134.32340595 510.93468434 -144.67426179 508.3988789 -154.53515625 500.125 C-164.59869988 490.20150568 -166.91073698 478.49229306 -167.03518581 464.88588715 C-167.04239348 461.64839851 -167.03018655 458.4112958 -167.01757812 455.17382812 C-167.02300376 452.83539902 -167.03012889 450.49697333 -167.03881836 448.15855408 C-167.05700189 441.83007051 -167.05000455 435.50184877 -167.03730202 429.17336082 C-167.02817913 423.21212732 -167.03515583 417.25092565 -167.0410108 411.28969127 C-167.05239489 398.76366905 -167.0393371 386.23776425 -167.01780933 373.7117613 C-166.99994028 362.98274955 -167.00304501 352.25391097 -167.02148438 341.52490234 C-167.04292959 329.04123129 -167.05129646 316.55766294 -167.03903532 304.07397604 C-167.03281119 297.47465453 -167.03193515 290.87545208 -167.04518127 284.27613831 C-167.05676748 278.07077268 -167.048663 271.86573287 -167.02560425 265.6604023 C-167.02033201 263.388088 -167.02180535 261.1157461 -167.03065491 258.84344292 C-167.08288507 244.0656532 -166.91249748 231.68309414 -156.5 220.1875 C-156.00628906 219.61644531 -155.51257813 219.04539063 -155.00390625 218.45703125 C-150.39648159 213.80704377 -145.00741798 211.455424 -139.125 208.8125 C-126.19774046 202.95721915 -117.11191672 195.02805702 -111.44140625 181.69921875 C-109.35261271 175.7526534 -108.37708118 169.87578142 -108.36869812 163.56672668 C-108.36468994 162.47212128 -108.36068176 161.37751587 -108.35655212 160.2497406 C-108.3573452 158.4706002 -108.3573452 158.4706002 -108.3581543 156.65551758 C-108.35282076 154.71989177 -108.34748125 152.78426596 -108.34191763 150.8486408 C-108.33673393 148.77531728 -108.33381132 146.70200006 -108.33133507 144.62867165 C-108.3253969 140.29429312 -108.30882925 135.95999549 -108.28999329 131.62565613 C-108.28365653 130.13807778 -108.2773309 128.65049939 -108.27101612 127.16292095 C-108.26785031 126.4181073 -108.2646845 125.67329365 -108.26142275 124.9059099 C-108.21945362 114.82294837 -108.18638979 104.74002551 -108.17407227 94.65698242 C-108.16566567 87.84514355 -108.14308086 81.03350647 -108.1047166 74.22176856 C-108.08504576 70.62369941 -108.07252128 67.02593126 -108.07755089 63.42780495 C-108.08310316 59.40707657 -108.05767843 55.38709242 -108.0300293 51.36645508 C-108.03993141 49.60249641 -108.03993141 49.60249641 -108.05003357 47.80290222 C-107.91483721 35.7803643 -104.1527265 25.36329099 -95.91015625 16.47265625 C-83.05124624 4.58194652 -64.21624764 3.83929185 -47.67529297 1.39770508 C-45.00187166 1.00027824 -42.33115546 0.58717957 -39.66015625 0.17382812 C-26.25502048 -1.84792168 -13.35507618 -3.16315685 0 0 Z M121.5 21.1875 C121.34966309 21.90067383 121.19932617 22.61384766 121.04443359 23.34863281 C111.45878394 68.48740633 93.99327892 108.31337308 70.625 148 C69.84056519 149.33260864 69.84056519 149.33260864 69.0402832 150.69213867 C64.73047262 157.94061252 64.73047262 157.94061252 62.99710083 159.79743958 C56.338988 167.68574466 57.74845257 177.36628316 57.9140625 187.09765625 C57.92526701 189.0353412 57.93380126 190.97304325 57.93978882 192.91075134 C57.96258838 197.986112 58.02143434 203.06042601 58.0880127 208.13537598 C58.1496275 213.32383062 58.17684469 218.51245604 58.20703125 223.70117188 C58.27118681 233.86373858 58.37345782 244.02553192 58.5 254.1875 C59.61858398 254.20151855 59.61858398 254.20151855 60.75976562 254.21582031 C64.1738215 254.2698603 67.58655655 254.35344304 71 254.4375 C72.17304688 254.45167969 73.34609375 254.46585938 74.5546875 254.48046875 C81.26048953 254.66883398 87.10933851 254.87822384 92.5 259.1875 C93.31137367 260.53915161 94.09782338 261.90596838 94.86343384 263.28405762 C96.90123614 266.04701069 97.95043911 267.04496532 101.30823898 267.91584778 C104.96654266 268.17458333 108.54950505 268.1764432 112.21630859 268.09570312 C113.61618927 268.09344471 115.01607941 268.09471677 116.41595459 268.09924316 C120.20557042 268.10153402 123.99315107 268.0545818 127.78229475 267.9986515 C131.74600303 267.94856119 135.70976062 267.94393552 139.67373657 267.93444824 C147.17508755 267.90960609 154.67550321 267.84398957 162.17644274 267.76365232 C170.71800397 267.67416021 179.25961042 267.63022913 187.80152392 267.59008884 C205.36822319 267.50652022 222.93401263 267.36585298 240.5 267.1875 C240.58834684 263.87517302 240.64083584 260.56315565 240.6875 257.25 C240.71263672 256.32380859 240.73777344 255.39761719 240.76367188 254.44335938 C240.83422736 247.74058852 240.50113666 240.66504226 235.92886353 235.36695862 C231.8815423 231.56625128 227.18323833 229.3972634 222.125 227.25 C215.5060666 224.27884383 209.87370205 221.14275804 204.5 216.1875 C203.49453125 215.31738281 203.49453125 215.31738281 202.46875 214.4296875 C191.58752187 204.42732779 183.12600478 188.52686391 182.36692142 173.56434917 C182.36306651 172.62068398 182.3592116 171.6770188 182.35523987 170.70475769 C182.34834137 169.61560562 182.34144287 168.52645355 182.33433533 167.40429688 C182.33172195 166.21924561 182.32910858 165.03419434 182.32641602 163.81323242 C182.31615117 161.88545931 182.30588419 159.95768621 182.29553688 158.02991354 C182.28532491 155.96257965 182.27746366 153.8952481 182.27020454 151.82790184 C182.25470594 147.51122957 182.23075626 143.19462957 182.20530701 138.87800598 C182.13422881 126.60483374 182.07437997 114.33162041 182.02319336 102.05834961 C181.99483202 95.27589715 181.95942082 88.49351699 181.91653961 81.71114045 C181.88986633 77.4257037 181.87190054 73.14034862 181.86050236 68.8548454 C181.84918073 65.55315771 181.82507316 62.25158388 181.80297852 58.94995117 C181.80238937 57.7709726 181.80180023 56.59199402 181.80119324 55.37728882 C181.72008304 46.21650124 181.10396452 38.06552157 174.5 31.1875 C169.02811193 27.52701461 163.31884496 26.32774001 156.890625 25.484375 C156.00139343 25.35685852 155.11216187 25.22934204 154.19598389 25.09796143 C151.38231414 24.69805745 148.56637286 24.31784307 145.75 23.9375 C143.84487912 23.66788602 141.93992884 23.39706366 140.03515625 23.125 C136.55465025 22.63465522 133.07414714 22.14472761 129.59082031 21.67480469 C128.8954718 21.58028015 128.20012329 21.48575562 127.48370361 21.3883667 C125.49816541 21.18731423 123.49569137 21.1875 121.5 21.1875 Z M-34.59082031 21.67480469 C-35.78291107 21.83562531 -35.78291107 21.83562531 -36.99908447 21.99969482 C-40.62652888 22.50558833 -44.25363842 23.01337376 -47.87939453 23.53125 C-49.7851266 23.80095047 -51.69171433 24.06467582 -53.59912109 24.32226562 C-56.36505716 24.69597602 -59.12782936 25.08818801 -61.890625 25.484375 C-63.15510468 25.6502713 -63.15510468 25.6502713 -64.44512939 25.81951904 C-70.90821373 26.77875086 -76.93400997 28.50952179 -81.55859375 33.3359375 C-82.01363281 34.07070313 -82.46867187 34.80546875 -82.9375 35.5625 C-83.41058594 36.29210938 -83.88367188 37.02171875 -84.37109375 37.7734375 C-86.45386877 42.22726091 -86.62478668 46.90570473 -86.63803101 51.76358032 C-86.64348434 52.84832642 -86.64893768 53.93307251 -86.65455627 55.0506897 C-86.65611977 56.81344742 -86.65611977 56.81344742 -86.65771484 58.61181641 C-86.66279556 59.86138123 -86.66787628 61.11094604 -86.67311096 62.39837646 C-86.68380053 65.10912092 -86.69280576 67.81981475 -86.69923019 70.53056717 C-86.70996399 74.82741567 -86.73022445 79.12418693 -86.75234985 83.42098999 C-86.81408892 95.63723186 -86.86819219 107.85346885 -86.90136719 120.06982422 C-86.91978522 126.82268339 -86.94881065 133.57541249 -86.9893719 140.3281759 C-87.01032268 143.89437034 -87.02588206 147.46040173 -87.02817917 151.02666092 C-87.03075039 155.01356006 -87.05633258 159.00000884 -87.08349609 162.98681641 C-87.08048996 164.14984283 -87.07748383 165.31286926 -87.0743866 166.51113892 C-87.18009362 177.00909918 -89.21316509 186.80422263 -94 196.1875 C-94.34039307 196.859021 -94.68078613 197.53054199 -95.03149414 198.22241211 C-103.31251931 213.728839 -117.12134417 223.24878974 -132.8671875 230.23828125 C-138.75322811 232.93697534 -142.27948376 235.91583842 -144.625 242.203125 C-145.94129407 247.11880249 -145.71476068 252.07423562 -145.625 257.125 C-145.61597656 258.09501953 -145.60695313 259.06503906 -145.59765625 260.06445312 C-145.57426107 262.43906407 -145.54148176 264.81314776 -145.5 267.1875 C-127.08928927 267.37442972 -108.678825 267.515478 -90.26737022 267.60199738 C-81.71845136 267.64323885 -73.1701223 267.69945828 -64.62158203 267.79101562 C-57.17012088 267.87078486 -49.71908686 267.92237283 -42.2672106 267.94020796 C-38.3216696 267.9506331 -34.37735047 267.97510742 -30.43220139 268.03334045 C-26.71689736 268.08773537 -23.00331547 268.10437578 -19.28765106 268.09236145 C-17.27755232 268.09560432 -15.26764036 268.13861124 -13.25802612 268.18286133 C-6.86790017 268.30538713 -6.86790017 268.30538713 -1.44740677 265.4316864 C0.16262993 263.34465143 0.16262993 263.34465143 1.32486534 261.14513397 C3.46157221 257.58563555 6.59765341 256.24977044 10.5 255.1875 C15.002969 254.61247029 19.46410219 254.49232953 24 254.4375 C25.20398438 254.40785156 26.40796875 254.37820313 27.6484375 254.34765625 C30.59902393 254.27740419 33.54884056 254.22448514 36.5 254.1875 C36.78013275 243.17291537 36.99229785 232.15920069 37.12174606 221.14175701 C37.18393112 216.02362955 37.26802002 210.90796809 37.40527344 205.79125977 C39.25626157 175.61644201 39.25626157 175.61644201 25.92993164 149.78335571 C23.91275997 147.53211877 22.50347414 145.04886524 21.0546875 142.40625 C20.60351562 141.61847168 20.15234375 140.83069336 19.6875 140.01904297 C19.254375 139.24963379 18.82125 138.48022461 18.375 137.6875 C17.88257813 136.81625488 17.39015625 135.94500977 16.8828125 135.04736328 C15.41264922 132.43242402 13.95395101 129.81148247 12.5 127.1875 C12.06977539 126.4150293 11.63955078 125.64255859 11.19628906 124.84667969 C-6.79634767 92.33071245 -19.90980646 57.78041679 -26.5 21.1875 C-29.34776609 21.1875 -31.80625564 21.29627553 -34.59082031 21.67480469 Z M-4.5 22.1875 C-2.76230116 33.59468054 -0.24017595 44.33802408 3.5 55.25 C3.73854706 55.95683929 3.97709412 56.66367859 4.22286987 57.39193726 C8.4287349 69.81365179 13.38146803 81.75305452 19.18554688 93.52197266 C20.45288812 96.09196368 21.69003938 98.67456153 22.921875 101.26171875 C29.86083891 115.6584741 37.63069522 129.88354283 46.5 143.1875 C50.15253206 141.96998931 50.38861163 141.1438062 52.21484375 137.8671875 C52.73022705 136.9508252 53.24561035 136.03446289 53.77661133 135.09033203 C54.32470459 134.09114746 54.87279785 133.09196289 55.4375 132.0625 C56.00944092 131.03366699 56.58138184 130.00483398 57.1706543 128.94482422 C63.14840043 118.1307698 68.92512563 107.21442664 74.5 96.1875 C74.87995117 95.43839355 75.25990234 94.68928711 75.65136719 93.91748047 C86.77993383 71.76804299 96.5278081 46.93868426 99.5 22.1875 C98.56542969 22.30867188 97.63085938 22.42984375 96.66796875 22.5546875 C93.05433841 23.01960448 89.43776986 23.45842509 85.82080078 23.89648438 C83.67775421 24.1652106 81.54068732 24.46213815 79.40234375 24.765625 C55.50880352 27.94864557 30.9241652 26.94040858 7.13232422 23.55126953 C3.26267582 23.01651011 -0.61562898 22.6003898 -4.5 22.1875 Z M16.5 275.1875 C16.5 289.0475 16.5 302.9075 16.5 317.1875 C36.96 317.1875 57.42 317.1875 78.5 317.1875 C78.5 303.3275 78.5 289.4675 78.5 275.1875 C58.04 275.1875 37.58 275.1875 16.5 275.1875 Z M-145.5 289.1875 C-145.5 294.1375 -145.5 299.0875 -145.5 304.1875 C-99.3 304.1875 -53.1 304.1875 -5.5 304.1875 C-5.5 299.2375 -5.5 294.2875 -5.5 289.1875 C-51.7 289.1875 -97.9 289.1875 -145.5 289.1875 Z M100.5 289.1875 C100.5 294.1375 100.5 299.0875 100.5 304.1875 C146.7 304.1875 192.9 304.1875 240.5 304.1875 C240.5 299.2375 240.5 294.2875 240.5 289.1875 C194.3 289.1875 148.1 289.1875 100.5 289.1875 Z M-145.5 325.1875 C-145.5 341.0275 -145.5 356.8675 -145.5 373.1875 C-127.08910449 373.36812839 -108.67892691 373.51547753 -90.26737022 373.60199738 C-81.71845136 373.64323885 -73.1701223 373.69945828 -64.62158203 373.79101562 C-57.17012088 373.87078486 -49.71908686 373.92237283 -42.2672106 373.94020796 C-38.3216696 373.9506331 -34.37735047 373.97510742 -30.43220139 374.03334045 C-26.71689736 374.08773537 -23.00331547 374.10437578 -19.28765106 374.09236145 C-17.27755232 374.09560432 -15.26764036 374.13861124 -13.25802612 374.18286133 C-6.8679489 374.30583449 -6.8679489 374.30583449 -1.4485054 371.43113708 C0.16076399 369.34368112 0.16076399 369.34368112 1.32181358 367.14360809 C3.33824404 363.79578819 5.99110789 362.78245096 9.5 361.1875 C12.94797149 360.35155321 16.26069035 360.01600975 19.80078125 359.87109375 C20.77724609 359.82919922 21.75371094 359.78730469 22.75976562 359.74414062 C23.76716797 359.70482422 24.77457031 359.66550781 25.8125 359.625 C26.83923828 359.58181641 27.86597656 359.53863281 28.92382812 359.49414062 C31.44907489 359.38843262 33.97452067 359.28749792 36.5 359.1875 C36.5 352.5875 36.5 345.9875 36.5 339.1875 C34.95570313 339.16171875 33.41140625 339.1359375 31.8203125 339.109375 C29.75518165 339.05305325 27.69007857 338.99570687 25.625 338.9375 C24.61179688 338.92332031 23.59859375 338.90914063 22.5546875 338.89453125 C14.9912415 338.65211311 7.2837005 337.70822255 1.52587891 332.35058594 C-0.48720218 330.08439997 -2.14373871 327.90002259 -3.5 325.1875 C-50.36 325.1875 -97.22 325.1875 -145.5 325.1875 Z M94.86929321 329.09191895 C94.28271659 330.15095806 94.28271659 330.15095806 93.68428993 331.23139191 C91.45350504 334.91601023 87.67501625 336.51610414 83.62792969 337.76538086 C81.09441906 338.26795542 78.6593283 338.40352612 76.078125 338.50390625 C75.05332031 338.54580078 74.02851563 338.58769531 72.97265625 338.63085938 C71.90917969 338.67017578 70.84570312 338.70949219 69.75 338.75 C68.13158203 338.81477539 68.13158203 338.81477539 66.48046875 338.88085938 C63.82045789 338.98678901 61.16024544 339.08763456 58.5 339.1875 C58.5 345.7875 58.5 352.3875 58.5 359.1875 C59.98371094 359.22488281 61.46742188 359.26226562 62.99609375 359.30078125 C64.97658594 359.36648478 66.9570536 359.43293057 68.9375 359.5 C69.91138672 359.52255859 70.88527344 359.54511719 71.88867188 359.56835938 C81.21794899 359.91157693 88.76839834 361.45589834 95.5 368.1875 C95.9305132 369.05423938 96.3610264 369.92097876 96.80458546 370.81398296 C98.28463762 373.43562703 98.28463762 373.43562703 101.08681011 373.80273914 C102.13120156 373.79813018 103.17559301 373.79352121 104.25163269 373.78877258 C105.45056656 373.7956459 106.64950043 373.80251923 107.88476562 373.80960083 C109.20178467 373.79162445 110.51880371 373.77364807 111.87573242 373.75512695 C113.2751714 373.75371674 114.67461408 373.75450793 116.0740509 373.75733948 C119.87572797 373.75877615 123.67661886 373.72934701 127.47811294 373.69446969 C131.44991191 373.6632473 135.42172822 373.66027873 139.39363098 373.65434265 C146.91605667 373.638792 154.43811973 373.59774731 161.96038562 373.5475952 C170.52372347 373.49173949 179.08707849 373.46422479 187.65055311 373.43911803 C205.26728287 373.38683216 222.88351541 373.29512557 240.5 373.1875 C240.5 357.3475 240.5 341.5075 240.5 325.1875 C222.08910449 325.00687161 203.67892691 324.85952247 185.26737022 324.77300262 C176.71845136 324.73176115 168.1701223 324.67554172 159.62158203 324.58398438 C152.17012088 324.50421514 144.71908686 324.45262717 137.2672106 324.43479204 C133.3216696 324.4243669 129.37735047 324.39989258 125.43220139 324.34165955 C121.71689736 324.28726463 118.00331547 324.27062422 114.28765106 324.28263855 C112.27755232 324.27939568 110.26764036 324.23638876 108.25802612 324.19213867 C100.44401649 324.17054626 100.44401649 324.17054626 94.86929321 329.09191895 Z M16.5 381.1875 C16.5 395.0475 16.5 408.9075 16.5 423.1875 C36.96 423.1875 57.42 423.1875 78.5 423.1875 C78.5 409.3275 78.5 395.4675 78.5 381.1875 C58.04 381.1875 37.58 381.1875 16.5 381.1875 Z M-145.5 395.1875 C-145.5 399.8075 -145.5 404.4275 -145.5 409.1875 C-99.3 409.1875 -53.1 409.1875 -5.5 409.1875 C-5.5 404.5675 -5.5 399.9475 -5.5 395.1875 C-51.7 395.1875 -97.9 395.1875 -145.5 395.1875 Z M100.5 395.1875 C100.5 399.8075 100.5 404.4275 100.5 409.1875 C146.7 409.1875 192.9 409.1875 240.5 409.1875 C240.5 404.5675 240.5 399.9475 240.5 395.1875 C194.3 395.1875 148.1 395.1875 100.5 395.1875 Z M-145.5 431.1875 C-145.57462464 436.71929027 -145.62882498 442.25078205 -145.66479492 447.78295898 C-145.67980333 449.6615917 -145.70021652 451.54018984 -145.72631836 453.41870117 C-145.76305386 456.13208593 -145.77980607 458.8450041 -145.79296875 461.55859375 C-145.80845261 462.38709335 -145.82393646 463.21559296 -145.83988953 464.06919861 C-145.84176909 470.70634525 -144.85020529 477.18585188 -140.66796875 482.52734375 C-140.01441406 483.05457031 -139.36085938 483.58179688 -138.6875 484.125 C-137.71876953 484.94291016 -137.71876953 484.94291016 -136.73046875 485.77734375 C-132.08696674 488.71307794 -127.59661866 489.43791946 -122.1756897 489.44819641 C-120.30009621 489.45882362 -120.30009621 489.45882362 -118.38661194 489.46966553 C-117.01376306 489.46737204 -115.64091453 489.46486239 -114.26806641 489.4621582 C-112.81219726 489.46650875 -111.3563304 489.47169305 -109.90046692 489.47764587 C-105.95617007 489.49101098 -102.0119692 489.49161727 -98.06765413 489.48908257 C-94.77006875 489.48801107 -91.47250264 489.49290088 -88.17492139 489.497688 C-80.39231568 489.5087748 -72.60975823 489.50922539 -64.82714844 489.50317383 C-56.80983643 489.49713541 -48.79269998 489.50944354 -40.77541792 489.5307439 C-33.88179936 489.54838258 -26.98823656 489.55435764 -20.09459627 489.55110615 C-15.98189606 489.5492966 -11.86932107 489.55189657 -7.75664139 489.56582069 C-3.8873074 489.57843122 -0.01824623 489.57642467 3.85108376 489.56340981 C5.2667799 489.56105139 6.68249544 489.56375228 8.09816933 489.57203293 C20.06543786 489.76630547 20.06543786 489.76630547 30.5234375 484.5390625 C30.96945313 483.96929687 31.41546875 483.39953125 31.875 482.8125 C32.33648437 482.24789062 32.79796875 481.68328125 33.2734375 481.1015625 C36.19240781 476.54648145 36.74266219 472.72965899 36.6953125 467.35546875 C36.68886719 466.06318359 36.68242187 464.77089844 36.67578125 463.43945312 C36.65907327 462.0846327 36.64214342 460.72981499 36.625 459.375 C36.61496003 458.00065749 36.60583596 456.62630797 36.59765625 455.25195312 C36.57411242 451.89695683 36.54122567 448.54231801 36.5 445.1875 C35.88068604 445.17291748 35.26137207 445.15833496 34.62329102 445.14331055 C31.76912227 445.06802583 28.91602251 444.97163686 26.0625 444.875 C25.08861328 444.85244141 24.11472656 444.82988281 23.11132812 444.80664062 C13.78205101 444.46342307 6.23160166 442.91910166 -0.5 436.1875 C-1.1457698 434.88739093 -1.1457698 434.88739093 -1.80458546 433.56101704 C-3.28463762 430.93937297 -3.28463762 430.93937297 -6.08681011 430.57226086 C-7.13120156 430.57686982 -8.17559301 430.58147879 -9.25163269 430.58622742 C-11.05003349 430.57591743 -11.05003349 430.57591743 -12.88476562 430.56539917 C-14.86029419 430.59236374 -14.86029419 430.59236374 -16.87573242 430.61987305 C-18.2751714 430.62128326 -19.67461408 430.62049207 -21.0740509 430.61766052 C-24.87572797 430.61622385 -28.67661886 430.64565299 -32.47811294 430.68053031 C-36.44991191 430.7117527 -40.42172822 430.71472127 -44.39363098 430.72065735 C-51.91605667 430.736208 -59.43811973 430.77725269 -66.96038562 430.8274048 C-75.52372347 430.88326051 -84.08707849 430.91077521 -92.65055311 430.93588197 C-110.26724112 430.98816772 -127.88359142 431.07613345 -145.5 431.1875 Z M94.86538696 435.09191895 C94.27772269 436.15095806 94.27772269 436.15095806 93.67818642 437.23139191 C91.66175596 440.57921181 89.00889211 441.59254904 85.5 443.1875 C82.05202851 444.02344679 78.73930965 444.35899025 75.19921875 444.50390625 C74.22275391 444.54580078 73.24628906 444.58769531 72.24023438 444.63085938 C71.23283203 444.67017578 70.22542969 444.70949219 69.1875 444.75 C68.16076172 444.79318359 67.13402344 444.83636719 66.07617188 444.88085938 C63.55090431 444.98656825 61.02554438 445.08866468 58.5 445.1875 C58.40026148 449.17090305 58.32812802 453.15381108 58.28027344 457.13818359 C58.25053955 459.15097627 58.19968271 461.16342134 58.1484375 463.17578125 C58.06725741 471.2531998 58.1904417 477.47158136 63.87744141 483.69482422 C68.9065404 488.28775095 74.18882855 489.43561692 80.8243103 489.44819641 C82.69990379 489.45882362 82.69990379 489.45882362 84.61338806 489.46966553 C85.98623694 489.46737204 87.35908547 489.46486239 88.73193359 489.4621582 C90.18780274 489.46650875 91.6436696 489.47169305 93.09953308 489.47764587 C97.04382993 489.49101098 100.9880308 489.49161727 104.93234587 489.48908257 C108.22993125 489.48801107 111.52749736 489.49290088 114.82507861 489.497688 C122.60768432 489.5087748 130.39024177 489.50922539 138.17285156 489.50317383 C146.19016357 489.49713541 154.20730002 489.50944354 162.22458208 489.5307439 C169.11820064 489.54838258 176.01176344 489.55435764 182.90540373 489.55110615 C187.01810394 489.5492966 191.13067893 489.55189657 195.24335861 489.56582069 C199.1126926 489.57843122 202.98175377 489.57642467 206.85108376 489.56340981 C208.2667799 489.56105139 209.68249544 489.56375228 211.09816933 489.57203293 C223.18854683 489.72094204 223.18854683 489.72094204 233.7421875 484.390625 C234.28101563 483.74609375 234.81984375 483.1015625 235.375 482.4375 C236.20644531 481.48617187 236.20644531 481.48617187 237.0546875 480.515625 C240.72548411 474.60266614 240.7783417 468.50094041 240.6953125 461.75390625 C240.6924826 460.87596909 240.68965271 459.99803192 240.68673706 459.0934906 C240.67561598 456.31218355 240.65052672 453.53120836 240.625 450.75 C240.61495975 448.85482239 240.60583573 446.95963968 240.59765625 445.06445312 C240.57570315 440.43867583 240.5412296 435.81314402 240.5 431.1875 C222.08928927 431.00057028 203.678825 430.859522 185.26737022 430.77300262 C176.71845136 430.73176115 168.1701223 430.67554172 159.62158203 430.58398438 C152.17012088 430.50421514 144.71908686 430.45262717 137.2672106 430.43479204 C133.3216696 430.4243669 129.37735047 430.39989258 125.43220139 430.34165955 C121.71689736 430.28726463 118.00331547 430.27062422 114.28765106 430.28263855 C112.27755232 430.27939568 110.26764036 430.23638876 108.25802612 430.19213867 C100.44308547 430.17128309 100.44308547 430.17128309 94.86538696 435.09191895 Z " fill="#000000" transform="translate(208.5,1.8125)"/>
</svg>
