<?xml version="1.0" encoding="UTF-8"?>
<svg version="1.1" xmlns="http://www.w3.org/2000/svg" width="512" height="512">
<path d="M0 0 C0.96594086 0.00054382 1.93188171 0.00108765 2.92709351 0.00164795 C18.82427694 0.04267209 34.1070568 0.96742637 49.6875 4.375 C51.16669922 4.69645996 51.16669922 4.69645996 52.67578125 5.02441406 C88.3192544 13.04769914 121.14174881 28.59020052 149.6875 51.375 C150.2232666 51.79507324 150.7590332 52.21514648 151.31103516 52.64794922 C167.17904358 65.1516803 181.94526887 79.92184188 193.6875 96.375 C194.12288086 96.97135254 194.55826172 97.56770508 195.00683594 98.18212891 C217.4591683 129.02386471 232.93492692 164.55817422 238.6875 202.375 C238.86265137 203.49511475 239.03780273 204.61522949 239.21826172 205.76928711 C240.8222463 217.07945314 241.08675288 228.27504914 241.0625 239.6875 C241.06168427 241.13641129 241.06168427 241.13641129 241.06085205 242.61459351 C241.01982791 258.51177694 240.09507363 273.7945568 236.6875 289.375 C236.36604004 290.85419922 236.36604004 290.85419922 236.03808594 292.36328125 C223.91113304 346.23731361 192.89681382 396.79401226 148.6875 430.375 C148.08583008 430.84196289 147.48416016 431.30892578 146.86425781 431.79003906 C115.46035565 456.04332378 77.92197386 472.28140997 38.6875 478.375 C37.56303467 478.55160156 36.43856934 478.72820312 35.2800293 478.91015625 C23.97499807 480.5125906 12.78208054 480.77424147 1.375 480.75 C0.40905914 480.74945618 -0.55688171 480.74891235 -1.55209351 480.74835205 C-17.44927694 480.70732791 -32.7320568 479.78257363 -48.3125 476.375 C-49.29863281 476.16069336 -50.28476563 475.94638672 -51.30078125 475.72558594 C-70.82111944 471.33159107 -89.78899627 464.84007872 -107.43896484 455.375 C-109.35150474 454.35418121 -111.27705525 453.36240716 -113.20703125 452.375 C-143.71669763 436.63985091 -172.27928905 412.30851342 -192.3125 384.375 C-193.0859375 383.31152344 -193.859375 382.24804688 -194.65625 381.15234375 C-216.33541184 350.60105917 -231.54904651 315.48384131 -237.3125 278.375 C-237.48910156 277.25053467 -237.66570312 276.12606934 -237.84765625 274.9675293 C-239.4500906 263.66249807 -239.71174147 252.46958054 -239.6875 241.0625 C-239.68695618 240.09655914 -239.68641235 239.13061829 -239.68585205 238.13540649 C-239.64482791 222.23822306 -238.72007363 206.9554432 -235.3125 191.375 C-235.09819336 190.38886719 -234.88388672 189.40273437 -234.66308594 188.38671875 C-226.11218914 150.39932863 -208.82303674 114.87445704 -183.3125 85.375 C-182.66539062 84.61703125 -182.01828125 83.8590625 -181.3515625 83.078125 C-169.85057483 69.94672911 -157.47591284 57.61088463 -143.3125 47.375 C-142.24644531 46.59898438 -141.18039063 45.82296875 -140.08203125 45.0234375 C-109.51908056 23.35761862 -74.42629552 8.13922294 -37.3125 2.375 C-36.18803467 2.19839844 -35.06356934 2.02179687 -33.9050293 1.83984375 C-22.59999807 0.2374094 -11.40708054 -0.02424147 0 0 Z M-143.3125 91.375 C-143.84375488 91.87902344 -144.37500977 92.38304687 -144.92236328 92.90234375 C-153.21629571 100.80461142 -160.56462127 109.11747377 -167.3125 118.375 C-167.72032715 118.92784668 -168.1281543 119.48069336 -168.54833984 120.05029297 C-193.87453643 154.7935542 -206.79232148 196.98283429 -206.6875 239.75 C-206.68662384 240.6272876 -206.68574768 241.5045752 -206.68484497 242.40844727 C-206.51266478 294.87038245 -186.06028477 344.90531257 -149.77197266 382.84814453 C-148.78741573 383.87815775 -147.8080186 384.91312459 -146.83349609 385.95263672 C-138.13465793 395.20869583 -128.65130138 403.00869769 -118.3125 410.375 C-117.7345166 410.7870166 -117.1565332 411.1990332 -116.56103516 411.62353516 C-72.06215924 442.80862377 -16.96875277 453.89115115 36.27709961 445.16040039 C65.89578203 439.94448909 95.35698245 428.20816343 119.6875 410.375 C120.739375 409.60671875 121.79125 408.8384375 122.875 408.046875 C130.02785486 402.72667467 136.71995699 396.99431017 143.16064453 390.83447266 C144.19065775 389.84991573 145.22562459 388.8705186 146.26513672 387.89599609 C155.52119583 379.19715793 163.32119769 369.71380138 170.6875 359.375 C171.0995166 358.7970166 171.5115332 358.2190332 171.93603516 357.62353516 C188.2151627 334.39439236 198.83372154 308.02162422 204.6875 280.375 C204.93306641 279.30137207 204.93306641 279.30137207 205.18359375 278.20605469 C216.40181298 227.88631513 202.88574414 173.29293682 176.625 129.97265625 C168.72421038 117.85067863 159.68590264 106.80105315 149.6875 96.375 C148.93146484 95.57811768 148.93146484 95.57811768 148.16015625 94.76513672 C140.25788858 86.47120429 131.94502623 79.12287873 122.6875 72.375 C121.85822998 71.76325928 121.85822998 71.76325928 121.01220703 71.13916016 C43.79749513 14.85328187 -66.92770585 21.32772781 -143.3125 91.375 Z " fill="#000000" transform="translate(255.3125,15.625)"/>
<path d="M0 0 C4.63874621 2.1537036 8.06995995 5.20574872 10 10 C10.56983679 14.41345883 10.48112156 18.79411677 10.41894531 23.23803711 C10.41457872 24.58714844 10.41209008 25.93626695 10.41133118 27.28538513 C10.40635498 30.18291549 10.38945526 33.08004268 10.36359406 35.97746086 C10.32406089 40.56281167 10.31932976 45.14779442 10.32073975 49.73329163 C10.31947079 62.76959758 10.27168056 75.80551793 10.18896484 88.84155273 C10.14354948 96.04743943 10.12692729 103.25283324 10.14094043 110.45885473 C10.14806761 115.01382699 10.11945154 119.56671312 10.0640254 124.12133205 C10.03787636 126.95934565 10.0452525 129.79655256 10.06191063 132.63460732 C10.06342694 134.56925457 10.02518835 136.50380633 9.98561096 138.43804932 C9.95585888 144.7698309 9.95585888 144.7698309 12.73827362 150.23810005 C14.80836857 152.09927201 14.80836857 152.09927201 16.9899559 153.54807377 C19 155 19 155 20.56245327 157.15140438 C21.93858471 159.3562077 21.93858471 159.3562077 25.12971497 159.49206543 C26.41955795 159.48888306 27.70940094 159.48570068 29.03833008 159.48242188 C29.75089462 159.48633438 30.46345917 159.49024689 31.19761658 159.49427795 C32.74450102 159.50025461 34.29144163 159.49707981 35.83829689 159.4858551 C38.2895363 159.46860925 40.73959448 159.47609204 43.19084167 159.4901123 C49.28038729 159.51978368 55.36970873 159.50658945 61.45928955 159.49493408 C66.60175029 159.48672024 71.74369596 159.49471782 76.8860836 159.52406311 C79.29595079 159.53114399 81.70490513 159.51449374 84.11470032 159.49694824 C85.60096726 159.50265869 87.08723049 159.50947725 88.57348633 159.51757812 C89.86571609 159.51439575 91.15794586 159.51121338 92.48933411 159.50793457 C97.75153959 160.24550103 100.78193173 162.71782287 104.375 166.5 C106.77303575 171.66500009 106.75381535 176.4002288 106 182 C103.69138458 186.97240245 100.72629148 189.33154927 96 192 C92.50279236 192.47187805 92.50279236 192.47187805 88.60522461 192.43481445 C87.89061569 192.43390808 87.17600677 192.43300171 86.43974304 192.43206787 C84.89776479 192.4280218 83.35578906 192.4150985 81.81394768 192.39415932 C79.37114715 192.36288181 76.92969247 192.35917612 74.48670959 192.36308289 C67.54543256 192.36958663 60.60477569 192.3290761 53.66381836 192.2644043 C49.4096482 192.2266735 45.15651104 192.22284758 40.90222359 192.23943138 C39.28467294 192.2386681 37.66707107 192.22462991 36.049757 192.19695473 C27.55335784 191.66988494 27.55335784 191.66988494 19.95228577 194.54176331 C18.39127835 196.60804644 18.39127835 196.60804644 17 200 C14.75390625 201.92578125 14.75390625 201.92578125 12.5625 203.3125 C11.84191406 203.78300781 11.12132812 204.25351562 10.37890625 204.73828125 C2.31220727 209.01667825 -7.96927008 209.55821932 -16.796875 207.27734375 C-19.00709945 206.33609299 -20.96973129 205.28050142 -23 204 C-23.62132812 203.649375 -24.24265625 203.29875 -24.8828125 202.9375 C-31.75583918 198.65301584 -35.91438525 191.71016855 -38 184 C-39.15136236 173.61559719 -38.59248587 164.55495492 -32 156 C-31.29187322 155.48725588 -30.58374643 154.97451176 -29.85416126 154.44622993 C-26.16389001 151.73591191 -23.45103576 149.59106709 -22.17383385 145.08562851 C-21.88163958 141.53528726 -21.86664101 138.08062772 -21.94995117 134.51904297 C-21.94917457 133.16800152 -21.94437449 131.81695736 -21.93588257 130.46594238 C-21.92621981 127.57001796 -21.94467859 124.67616277 -21.98549461 121.78051376 C-22.04986157 117.19924066 -22.05054 112.6192665 -22.04304504 108.03762817 C-22.0386599 100.79145886 -22.07652204 93.54623141 -22.13261348 86.30030072 C-22.23237487 73.32227234 -22.27401064 60.34411134 -22.27935392 47.3657161 C-22.28308365 42.81425022 -22.30980038 38.26366869 -22.35543191 33.71243644 C-22.38039573 30.88018869 -22.38921911 28.04804455 -22.39419174 25.21569824 C-22.40280896 23.28212705 -22.43166444 21.34867903 -22.46116638 19.41531372 C-22.45612962 12.98113628 -22.43929049 8.83715818 -18 4 C-12.72867143 -1.00776214 -6.89190982 -0.92775709 0 0 Z " fill="#000000" transform="translate(262,80)"/>
</svg>
